<svg width="32" height="32" viewBox="0 0 32 32" fill="none" xmlns="http://www.w3.org/2000/svg">
<path d="M26.6654 16V29.3333H5.33203V16" fill="#FFB31A"/>
<path d="M26.6654 16V29.3333H5.33203V16" stroke="black" stroke-width="2.66667" stroke-linecap="round" stroke-linejoin="round"/>
<path d="M29.3346 9.3335H2.66797V16.0002H29.3346V9.3335Z" fill="#FFB31A" stroke="black" stroke-width="2.66667" stroke-linecap="round" stroke-linejoin="round"/>
<path d="M16 29.3335V9.3335" stroke="black" stroke-width="2.66667" stroke-linecap="round" stroke-linejoin="round"/>
<path d="M16.0013 9.33317H10.0013C9.11725 9.33317 8.2694 8.98198 7.64428 8.35686C7.01916 7.73174 6.66797 6.88389 6.66797 5.99984C6.66797 5.11578 7.01916 4.26794 7.64428 3.64281C8.2694 3.01769 9.11725 2.6665 10.0013 2.6665C14.668 2.6665 16.0013 9.33317 16.0013 9.33317Z" fill="#FFB31A" stroke="black" stroke-width="2.66667" stroke-linecap="round" stroke-linejoin="round"/>
<path d="M16 9.33317H22C22.8841 9.33317 23.7319 8.98198 24.357 8.35686C24.9821 7.73174 25.3333 6.88389 25.3333 5.99984C25.3333 5.11578 24.9821 4.26794 24.357 3.64281C23.7319 3.01769 22.8841 2.6665 22 2.6665C17.3333 2.6665 16 9.33317 16 9.33317Z" fill="#FFB31A" stroke="black" stroke-width="2.66667" stroke-linecap="round" stroke-linejoin="round"/>
</svg>
